Poster: 
http://imgr.us/images/zhug98e53q23hzig23he.jpeg

Info:
Format : AVI
Format/Info : Audio Video Interleave
File size : 1.16 GiB
Duration : 1h 29mn
Overall bit rate : 1 858 Kbps

Video
ID : 0
Format : MPEG-4 Visual
Format profile : Advanced Simple@L5
Format settings, BVOP : 2
Format settings, QPel : No
Format settings, GMC : No warppoints
Format settings, Matrix : Default (H.263)
Codec ID : XVID
Codec ID/Hint : XviD
Duration : 1h 29mn
Bit rate : 1 718 Kbps
Width : 720 pixels
Height : 340 pixels
Display aspect ratio : 2.118
Frame rate : 23.976 fps
Color space : YUV
Chroma subsampling : 4:2:0
Bit depth : 8 bits
Scan type : Progressive
Compression mode : Lossy
Bits/(Pixel*Frame) : 0.293
Stream size : 1.07 GiB (92%)
Writing library : XviD 64

Audio
ID : 1
Format : MPEG Audio
Format version : Version 1
Format profile : Layer 3
Mode : Joint stereo
Mode extension : MS Stereo
Codec ID : 55
Codec ID/Hint : MP3
Duration : 1h 29mn
Source duration : 1h 29mn
Bit rate mode : Constant
Bit rate : 128 Kbps
Channel(s) : 2 channels
Sampling rate : 44.1 KHz
Compression mode : Lossy
Stream size : 81.5 MiB (7%)
Alignment : Aligned on interleaves
Interleave, duration : 26 ms (0.63 video frame)
Writing library : LAME3.99r
Encoding settings : -m j -V 4 -q 2 -lowpass 17 -b 128 

Screens:
 
http://imgr.us/images/k26oyy5nti472qbes0.png 
http://imgr.us/images/8gkw3ej2znhv9bbu1rsk.png 
http://imgr.us/images/zwo16ii2oeg4opq9vqf.png 
http://imgr.us/images/g251uymoox8ptgn37n.png